<mxfile host="app.diagrams.net" modified="2024-01-23T03:05:01.280Z" agent="Mozilla/5.0 (Windows NT 10.0; Win64; x64) AppleWebKit/537.36 (KHTML, like Gecko) Chrome/120.0.0.0 Safari/537.36" version="22.1.21" etag="g5eaFZrr_Ni5fW8_69Dj" type="github">
  <diagram name="Page-1" id="c-xR1d8M93Wk-yHdBi_B">
    <mxGraphModel>
      <root>
        <mxCell id="0" />
        <mxCell id="1" parent="0" />
      </root>
    </mxGraphModel>
  </diagram>
</mxfile>
